<svg width="60" height="58" viewBox="0 0 60 58" fill="none" xmlns="http://www.w3.org/2000/svg">
<path d="M26.7916 1.12497C13.3749 2.58331 2.58326 13.375 1.12493 26.5C-0.625072 41.0833 8.41659 53.625 21.2499 57.7083V51C21.2499 51 20.0833 51.2916 18.6249 51.2916C14.5416 51.2916 12.7916 47.7916 12.4999 45.75C12.2083 44.5833 11.6249 43.7083 10.7499 42.8333C9.87493 42.5416 9.58326 42.5416 9.58326 42.25C9.58326 41.6666 10.4583 41.6666 10.7499 41.6666C12.4999 41.6666 13.9583 43.7083 14.5416 44.5833C15.9999 46.9166 17.7499 47.5 18.6249 47.5C19.7916 47.5 20.6666 47.2083 21.2499 46.9166C21.5416 44.875 22.4166 42.8333 24.1666 41.6666C17.4583 40.2083 12.4999 36.4166 12.4999 30C12.4999 26.7916 13.9583 23.5833 15.9999 21.25C15.7083 20.6666 15.4166 19.2083 15.4166 17.1666C15.4166 16 15.4166 14.25 16.2916 12.5C16.2916 12.5 20.3749 12.5 24.4583 16.2916C25.9166 15.7083 27.9583 15.4166 29.9999 15.4166C32.0416 15.4166 34.0833 15.7083 35.8333 16.2916C39.6249 12.5 43.9999 12.5 43.9999 12.5C44.5833 14.25 44.5833 16 44.5833 17.1666C44.5833 19.5 44.2916 20.6666 43.9999 21.25C46.0416 23.5833 47.4999 26.5 47.4999 30C47.4999 36.4166 42.5416 40.2083 35.8333 41.6666C37.5833 43.125 38.7499 45.75 38.7499 48.375V58C50.7083 54.2083 59.1666 43.125 59.1666 30.2916C59.1666 12.7916 44.2916 -0.916693 26.7916 1.12497Z" fill="#C7FFDA"/>
</svg>
