<svg width="60" height="60" viewBox="0 0 60 60" fill="none" xmlns="http://www.w3.org/2000/svg">
<path d="M52.4001 0.599976H7.6001C3.7361 0.599976 0.600098 3.73598 0.600098 7.59998V52.4C0.600098 56.264 3.7361 59.4 7.6001 59.4H52.4001C56.2641 59.4 59.4001 56.264 59.4001 52.4V7.59998C59.4001 3.73598 56.2641 0.599976 52.4001 0.599976ZM18.8001 23V49.6H10.4001V23H18.8001ZM10.4001 15.258C10.4001 13.298 12.0801 11.8 14.6001 11.8C17.1201 11.8 18.7021 13.298 18.8001 15.258C18.8001 17.218 17.2321 18.8 14.6001 18.8C12.0801 18.8 10.4001 17.218 10.4001 15.258ZM49.6001 49.6H41.2001C41.2001 49.6 41.2001 36.636 41.2001 35.6C41.2001 32.8 39.8001 30 36.3001 29.944H36.1881C32.8001 29.944 31.4001 32.828 31.4001 35.6C31.4001 36.874 31.4001 49.6 31.4001 49.6H23.0001V23H31.4001V26.584C31.4001 26.584 34.1021 23 39.5341 23C45.0921 23 49.6001 26.822 49.6001 34.564V49.6Z" fill="#C7FFDA"/>
</svg>
